<mxfile host="app.diagrams.net" modified="2021-06-05T05:40:34.977Z" agent="5.0 (Windows NT 10.0; Win64; x64) AppleWebKit/537.36 (KHTML, like Gecko) Chrome/91.0.4472.77 Safari/537.36" etag="Shxq9NjrgxMrT-IPfdsS" version="14.7.6" type="github">
  <diagram id="C5RBs43oDa-KdzZeNtuy" name="Page-1">
    <mxGraphModel dx="1242" dy="694" grid="1" gridSize="10" guides="1" tooltips="1" connect="1" arrows="1" fold="1" page="1" pageScale="1" pageWidth="827" pageHeight="1169" math="0" shadow="0">
      <root>
        <mxCell id="WIyWlLk6GJQsqaUBKTNV-0" />
        <mxCell id="WIyWlLk6GJQsqaUBKTNV-1" parent="WIyWlLk6GJQsqaUBKTNV-0" />
        <mxCell id="5G_CxzOqrXxREQN-ShXc-9" style="edgeStyle=orthogonalEdgeStyle;rounded=0;orthogonalLoop=1;jettySize=auto;html=1;exitX=0.5;exitY=0;exitDx=0;exitDy=0;endArrow=block;endFill=0;endSize=14;entryX=0.5;entryY=0;entryDx=0;entryDy=0;" parent="WIyWlLk6GJQsqaUBKTNV-1" source="5G_CxzOqrXxREQN-ShXc-0" target="5G_CxzOqrXxREQN-ShXc-10" edge="1">
          <mxGeometry relative="1" as="geometry">
            <mxPoint x="499.99999999999955" y="240" as="targetPoint" />
          </mxGeometry>
        </mxCell>
        <mxCell id="5G_CxzOqrXxREQN-ShXc-0" value="DemonOLPModel" style="swimlane;fontStyle=2;align=center;verticalAlign=top;childLayout=stackLayout;horizontal=1;startSize=26;horizontalStack=0;resizeParent=1;resizeLast=0;collapsible=1;marginBottom=0;rounded=0;shadow=0;strokeWidth=1;" parent="WIyWlLk6GJQsqaUBKTNV-1" vertex="1">
          <mxGeometry x="20" y="168" width="330" height="216" as="geometry">
            <mxRectangle x="230" y="140" width="160" height="26" as="alternateBounds" />
          </mxGeometry>
        </mxCell>
        <mxCell id="5G_CxzOqrXxREQN-ShXc-1" value="+ materials: Materials[]" style="text;align=left;verticalAlign=top;spacingLeft=4;spacingRight=4;overflow=hidden;rotatable=0;points=[[0,0.5],[1,0.5]];portConstraint=eastwest;" parent="5G_CxzOqrXxREQN-ShXc-0" vertex="1">
          <mxGeometry y="26" width="330" height="26" as="geometry" />
        </mxCell>
        <mxCell id="5G_CxzOqrXxREQN-ShXc-2" value="+ ScenceState: ReactiveProperty&lt;SceneState&gt;" style="text;align=left;verticalAlign=top;spacingLeft=4;spacingRight=4;overflow=hidden;rotatable=0;points=[[0,0.5],[1,0.5]];portConstraint=eastwest;rounded=0;shadow=0;html=0;" parent="5G_CxzOqrXxREQN-ShXc-0" vertex="1">
          <mxGeometry y="52" width="330" height="26" as="geometry" />
        </mxCell>
        <mxCell id="5G_CxzOqrXxREQN-ShXc-3" value="+ RobotModels: ReactiveCollection&lt;RobotModel&gt;" style="text;align=left;verticalAlign=top;spacingLeft=4;spacingRight=4;overflow=hidden;rotatable=0;points=[[0,0.5],[1,0.5]];portConstraint=eastwest;rounded=0;shadow=0;html=0;" parent="5G_CxzOqrXxREQN-ShXc-0" vertex="1">
          <mxGeometry y="78" width="330" height="26" as="geometry" />
        </mxCell>
        <mxCell id="5G_CxzOqrXxREQN-ShXc-19" value="+ BlankModels: ReactiveCollection&lt;BlankModel&gt;" style="text;align=left;verticalAlign=top;spacingLeft=4;spacingRight=4;overflow=hidden;rotatable=0;points=[[0,0.5],[1,0.5]];portConstraint=eastwest;rounded=0;shadow=0;html=0;" parent="5G_CxzOqrXxREQN-ShXc-0" vertex="1">
          <mxGeometry y="104" width="330" height="26" as="geometry" />
        </mxCell>
        <mxCell id="5G_CxzOqrXxREQN-ShXc-20" value="+ CommandModels: ReactiveCollection&lt;CommandModel&gt;" style="text;align=left;verticalAlign=top;spacingLeft=4;spacingRight=4;overflow=hidden;rotatable=0;points=[[0,0.5],[1,0.5]];portConstraint=eastwest;rounded=0;shadow=0;html=0;" parent="5G_CxzOqrXxREQN-ShXc-0" vertex="1">
          <mxGeometry y="130" width="330" height="26" as="geometry" />
        </mxCell>
        <mxCell id="5G_CxzOqrXxREQN-ShXc-21" value="+ ScannerModel: ScannerModel" style="text;align=left;verticalAlign=top;spacingLeft=4;spacingRight=4;overflow=hidden;rotatable=0;points=[[0,0.5],[1,0.5]];portConstraint=eastwest;rounded=0;shadow=0;html=0;" parent="5G_CxzOqrXxREQN-ShXc-0" vertex="1">
          <mxGeometry y="156" width="330" height="26" as="geometry" />
        </mxCell>
        <mxCell id="5G_CxzOqrXxREQN-ShXc-22" value="+ rosNodeStatus: ReactiveProperty&lt;bool&gt;[]" style="text;align=left;verticalAlign=top;spacingLeft=4;spacingRight=4;overflow=hidden;rotatable=0;points=[[0,0.5],[1,0.5]];portConstraint=eastwest;rounded=0;shadow=0;html=0;" parent="5G_CxzOqrXxREQN-ShXc-0" vertex="1">
          <mxGeometry y="182" width="330" height="26" as="geometry" />
        </mxCell>
        <mxCell id="5G_CxzOqrXxREQN-ShXc-4" value="" style="line;html=1;strokeWidth=1;align=left;verticalAlign=middle;spacingTop=-1;spacingLeft=3;spacingRight=3;rotatable=0;labelPosition=right;points=[];portConstraint=eastwest;" parent="5G_CxzOqrXxREQN-ShXc-0" vertex="1">
          <mxGeometry y="208" width="330" height="8" as="geometry" />
        </mxCell>
        <mxCell id="5G_CxzOqrXxREQN-ShXc-25" style="edgeStyle=orthogonalEdgeStyle;rounded=0;orthogonalLoop=1;jettySize=auto;html=1;exitX=0.5;exitY=1;exitDx=0;exitDy=0;endArrow=block;endFill=0;startSize=11;endSize=14;strokeWidth=1;" parent="WIyWlLk6GJQsqaUBKTNV-1" source="5G_CxzOqrXxREQN-ShXc-10" target="5G_CxzOqrXxREQN-ShXc-23" edge="1">
          <mxGeometry relative="1" as="geometry" />
        </mxCell>
        <mxCell id="5G_CxzOqrXxREQN-ShXc-10" value="Model&lt;DemonOLPApplication&gt;" style="swimlane;fontStyle=2;align=center;verticalAlign=top;childLayout=stackLayout;horizontal=1;startSize=26;horizontalStack=0;resizeParent=1;resizeLast=0;collapsible=1;marginBottom=0;rounded=0;shadow=0;strokeWidth=1;" parent="WIyWlLk6GJQsqaUBKTNV-1" vertex="1" collapsed="1">
          <mxGeometry x="400" y="180" width="200" height="22" as="geometry">
            <mxRectangle x="420" y="168" width="330" height="52" as="alternateBounds" />
          </mxGeometry>
        </mxCell>
        <mxCell id="5G_CxzOqrXxREQN-ShXc-14" value="" style="line;html=1;strokeWidth=1;align=left;verticalAlign=middle;spacingTop=-1;spacingLeft=3;spacingRight=3;rotatable=0;labelPosition=right;points=[];portConstraint=eastwest;" parent="5G_CxzOqrXxREQN-ShXc-10" vertex="1">
          <mxGeometry y="22" width="200" height="8" as="geometry" />
        </mxCell>
        <mxCell id="5G_CxzOqrXxREQN-ShXc-32" style="edgeStyle=orthogonalEdgeStyle;rounded=0;orthogonalLoop=1;jettySize=auto;html=1;exitX=0.5;exitY=1;exitDx=0;exitDy=0;entryX=0.5;entryY=0;entryDx=0;entryDy=0;endArrow=block;endFill=0;startSize=11;endSize=14;strokeWidth=1;" parent="WIyWlLk6GJQsqaUBKTNV-1" source="5G_CxzOqrXxREQN-ShXc-23" target="5G_CxzOqrXxREQN-ShXc-26" edge="1">
          <mxGeometry relative="1" as="geometry" />
        </mxCell>
        <mxCell id="5G_CxzOqrXxREQN-ShXc-23" value="Model" style="swimlane;fontStyle=2;align=center;verticalAlign=top;childLayout=stackLayout;horizontal=1;startSize=26;horizontalStack=0;resizeParent=1;resizeLast=0;collapsible=1;marginBottom=0;rounded=0;shadow=0;strokeWidth=1;" parent="WIyWlLk6GJQsqaUBKTNV-1" vertex="1" collapsed="1">
          <mxGeometry x="420" y="240" width="160" height="26" as="geometry">
            <mxRectangle x="420" y="260" width="330" height="52" as="alternateBounds" />
          </mxGeometry>
        </mxCell>
        <mxCell id="5G_CxzOqrXxREQN-ShXc-24" value="" style="line;html=1;strokeWidth=1;align=left;verticalAlign=middle;spacingTop=-1;spacingLeft=3;spacingRight=3;rotatable=0;labelPosition=right;points=[];portConstraint=eastwest;" parent="5G_CxzOqrXxREQN-ShXc-23" vertex="1">
          <mxGeometry y="26" width="160" height="8" as="geometry" />
        </mxCell>
        <mxCell id="5G_CxzOqrXxREQN-ShXc-31" style="edgeStyle=orthogonalEdgeStyle;rounded=0;orthogonalLoop=1;jettySize=auto;html=1;exitX=0.5;exitY=1;exitDx=0;exitDy=0;entryX=0.5;entryY=0;entryDx=0;entryDy=0;endArrow=block;endFill=0;startSize=11;endSize=14;strokeWidth=1;" parent="WIyWlLk6GJQsqaUBKTNV-1" source="5G_CxzOqrXxREQN-ShXc-26" target="5G_CxzOqrXxREQN-ShXc-29" edge="1">
          <mxGeometry relative="1" as="geometry" />
        </mxCell>
        <mxCell id="5G_CxzOqrXxREQN-ShXc-26" value="Element" style="swimlane;fontStyle=2;align=center;verticalAlign=top;childLayout=stackLayout;horizontal=1;startSize=26;horizontalStack=0;resizeParent=1;resizeLast=0;collapsible=1;marginBottom=0;rounded=0;shadow=0;strokeWidth=1;" parent="WIyWlLk6GJQsqaUBKTNV-1" vertex="1" collapsed="1">
          <mxGeometry x="420" y="300" width="160" height="26" as="geometry">
            <mxRectangle x="420" y="350" width="330" height="52" as="alternateBounds" />
          </mxGeometry>
        </mxCell>
        <mxCell id="5G_CxzOqrXxREQN-ShXc-27" value="" style="line;html=1;strokeWidth=1;align=left;verticalAlign=middle;spacingTop=-1;spacingLeft=3;spacingRight=3;rotatable=0;labelPosition=right;points=[];portConstraint=eastwest;" parent="5G_CxzOqrXxREQN-ShXc-26" vertex="1">
          <mxGeometry y="26" width="160" height="8" as="geometry" />
        </mxCell>
        <mxCell id="5G_CxzOqrXxREQN-ShXc-29" value="SerializedMonoBehaviour" style="swimlane;fontStyle=2;align=center;verticalAlign=top;childLayout=stackLayout;horizontal=1;startSize=26;horizontalStack=0;resizeParent=1;resizeLast=0;collapsible=1;marginBottom=0;rounded=0;shadow=0;strokeWidth=1;" parent="WIyWlLk6GJQsqaUBKTNV-1" vertex="1" collapsed="1">
          <mxGeometry x="420" y="358" width="160" height="26" as="geometry">
            <mxRectangle x="420" y="436" width="330" height="52" as="alternateBounds" />
          </mxGeometry>
        </mxCell>
        <mxCell id="5G_CxzOqrXxREQN-ShXc-30" value="" style="line;html=1;strokeWidth=1;align=left;verticalAlign=middle;spacingTop=-1;spacingLeft=3;spacingRight=3;rotatable=0;labelPosition=right;points=[];portConstraint=eastwest;" parent="5G_CxzOqrXxREQN-ShXc-29" vertex="1">
          <mxGeometry y="26" width="160" height="8" as="geometry" />
        </mxCell>
        <mxCell id="CJstggTPEPOs3Jj6qC5T-0" value="BlankModel" style="swimlane;fontStyle=2;align=center;verticalAlign=top;childLayout=stackLayout;horizontal=1;startSize=26;horizontalStack=0;resizeParent=1;resizeLast=0;collapsible=1;marginBottom=0;rounded=0;shadow=0;strokeWidth=1;" parent="WIyWlLk6GJQsqaUBKTNV-1" vertex="1">
          <mxGeometry x="670" y="162" width="180" height="222" as="geometry">
            <mxRectangle x="230" y="140" width="160" height="26" as="alternateBounds" />
          </mxGeometry>
        </mxCell>
        <mxCell id="CJstggTPEPOs3Jj6qC5T-1" value="+ Id: int" style="text;align=left;verticalAlign=top;spacingLeft=4;spacingRight=4;overflow=hidden;rotatable=0;points=[[0,0.5],[1,0.5]];portConstraint=eastwest;" parent="CJstggTPEPOs3Jj6qC5T-0" vertex="1">
          <mxGeometry y="26" width="180" height="26" as="geometry" />
        </mxCell>
        <mxCell id="CJstggTPEPOs3Jj6qC5T-2" value="+ designNode: bool" style="text;align=left;verticalAlign=top;spacingLeft=4;spacingRight=4;overflow=hidden;rotatable=0;points=[[0,0.5],[1,0.5]];portConstraint=eastwest;rounded=0;shadow=0;html=0;" parent="CJstggTPEPOs3Jj6qC5T-0" vertex="1">
          <mxGeometry y="52" width="180" height="26" as="geometry" />
        </mxCell>
        <mxCell id="CJstggTPEPOs3Jj6qC5T-3" value="+ type: BlankType" style="text;align=left;verticalAlign=top;spacingLeft=4;spacingRight=4;overflow=hidden;rotatable=0;points=[[0,0.5],[1,0.5]];portConstraint=eastwest;rounded=0;shadow=0;html=0;" parent="CJstggTPEPOs3Jj6qC5T-0" vertex="1">
          <mxGeometry y="78" width="180" height="26" as="geometry" />
        </mxCell>
        <mxCell id="CJstggTPEPOs3Jj6qC5T-4" value="+ blankPose: BlankPose" style="text;align=left;verticalAlign=top;spacingLeft=4;spacingRight=4;overflow=hidden;rotatable=0;points=[[0,0.5],[1,0.5]];portConstraint=eastwest;rounded=0;shadow=0;html=0;" parent="CJstggTPEPOs3Jj6qC5T-0" vertex="1">
          <mxGeometry y="104" width="180" height="26" as="geometry" />
        </mxCell>
        <mxCell id="CJstggTPEPOs3Jj6qC5T-5" value="+ BlankObject: GameObject" style="text;align=left;verticalAlign=top;spacingLeft=4;spacingRight=4;overflow=hidden;rotatable=0;points=[[0,0.5],[1,0.5]];portConstraint=eastwest;rounded=0;shadow=0;html=0;" parent="CJstggTPEPOs3Jj6qC5T-0" vertex="1">
          <mxGeometry y="130" width="180" height="26" as="geometry" />
        </mxCell>
        <mxCell id="CJstggTPEPOs3Jj6qC5T-8" value="" style="line;html=1;strokeWidth=1;align=left;verticalAlign=middle;spacingTop=-1;spacingLeft=3;spacingRight=3;rotatable=0;labelPosition=right;points=[];portConstraint=eastwest;" parent="CJstggTPEPOs3Jj6qC5T-0" vertex="1">
          <mxGeometry y="156" width="180" height="8" as="geometry" />
        </mxCell>
        <mxCell id="CJstggTPEPOs3Jj6qC5T-7" value="+ BlankModel(...)" style="text;align=left;verticalAlign=top;spacingLeft=4;spacingRight=4;overflow=hidden;rotatable=0;points=[[0,0.5],[1,0.5]];portConstraint=eastwest;rounded=0;shadow=0;html=0;" parent="CJstggTPEPOs3Jj6qC5T-0" vertex="1">
          <mxGeometry y="164" width="180" height="30" as="geometry" />
        </mxCell>
        <mxCell id="CJstggTPEPOs3Jj6qC5T-9" value="CommandModel" style="swimlane;fontStyle=2;align=center;verticalAlign=top;childLayout=stackLayout;horizontal=1;startSize=26;horizontalStack=0;resizeParent=1;resizeLast=0;collapsible=1;marginBottom=0;rounded=0;shadow=0;strokeWidth=1;fontSize=14;" parent="WIyWlLk6GJQsqaUBKTNV-1" vertex="1">
          <mxGeometry x="1370.5" y="60" width="180" height="112" as="geometry">
            <mxRectangle x="230" y="140" width="160" height="26" as="alternateBounds" />
          </mxGeometry>
        </mxCell>
        <mxCell id="CJstggTPEPOs3Jj6qC5T-10" value="+ type: CommandType" style="text;align=left;verticalAlign=top;spacingLeft=4;spacingRight=4;overflow=hidden;rotatable=0;points=[[0,0.5],[1,0.5]];portConstraint=eastwest;fontSize=14;" parent="CJstggTPEPOs3Jj6qC5T-9" vertex="1">
          <mxGeometry y="26" width="180" height="26" as="geometry" />
        </mxCell>
        <mxCell id="CJstggTPEPOs3Jj6qC5T-11" value="+ poses: CommandPose[]" style="text;align=left;verticalAlign=top;spacingLeft=4;spacingRight=4;overflow=hidden;rotatable=0;points=[[0,0.5],[1,0.5]];portConstraint=eastwest;rounded=0;shadow=0;html=0;fontSize=14;" parent="CJstggTPEPOs3Jj6qC5T-9" vertex="1">
          <mxGeometry y="52" width="180" height="26" as="geometry" />
        </mxCell>
        <mxCell id="CJstggTPEPOs3Jj6qC5T-12" value="+ blankNum: int" style="text;align=left;verticalAlign=top;spacingLeft=4;spacingRight=4;overflow=hidden;rotatable=0;points=[[0,0.5],[1,0.5]];portConstraint=eastwest;rounded=0;shadow=0;html=0;fontSize=14;" parent="CJstggTPEPOs3Jj6qC5T-9" vertex="1">
          <mxGeometry y="78" width="180" height="26" as="geometry" />
        </mxCell>
        <mxCell id="CJstggTPEPOs3Jj6qC5T-15" value="" style="line;html=1;strokeWidth=1;align=left;verticalAlign=middle;spacingTop=-1;spacingLeft=3;spacingRight=3;rotatable=0;labelPosition=right;points=[];portConstraint=eastwest;fontSize=14;" parent="CJstggTPEPOs3Jj6qC5T-9" vertex="1">
          <mxGeometry y="104" width="180" height="8" as="geometry" />
        </mxCell>
        <mxCell id="JMnRLmYQZvvEb5AHf6ID-22" style="edgeStyle=orthogonalEdgeStyle;rounded=0;orthogonalLoop=1;jettySize=auto;html=1;exitX=0.5;exitY=0;exitDx=0;exitDy=0;endArrow=block;endFill=0;endSize=14;fontSize=14;" edge="1" parent="WIyWlLk6GJQsqaUBKTNV-1" source="CJstggTPEPOs3Jj6qC5T-18" target="CJstggTPEPOs3Jj6qC5T-9">
          <mxGeometry relative="1" as="geometry">
            <Array as="points">
              <mxPoint x="1701" y="202" />
              <mxPoint x="1461" y="202" />
            </Array>
          </mxGeometry>
        </mxCell>
        <mxCell id="CJstggTPEPOs3Jj6qC5T-18" value="PointToPointCommandModel" style="swimlane;fontStyle=2;align=center;verticalAlign=top;childLayout=stackLayout;horizontal=1;startSize=26;horizontalStack=0;resizeParent=1;resizeLast=0;collapsible=1;marginBottom=0;rounded=0;shadow=0;strokeWidth=1;fontSize=14;" parent="WIyWlLk6GJQsqaUBKTNV-1" vertex="1">
          <mxGeometry x="1601" y="219" width="229" height="68" as="geometry">
            <mxRectangle x="230" y="140" width="160" height="26" as="alternateBounds" />
          </mxGeometry>
        </mxCell>
        <mxCell id="CJstggTPEPOs3Jj6qC5T-22" value="" style="line;html=1;strokeWidth=1;align=left;verticalAlign=middle;spacingTop=-1;spacingLeft=3;spacingRight=3;rotatable=0;labelPosition=right;points=[];portConstraint=eastwest;fontSize=14;" parent="CJstggTPEPOs3Jj6qC5T-18" vertex="1">
          <mxGeometry y="26" width="229" height="8" as="geometry" />
        </mxCell>
        <mxCell id="CJstggTPEPOs3Jj6qC5T-6" value="+ PointToPointCommandModel(...)" style="text;align=left;verticalAlign=top;spacingLeft=4;spacingRight=4;overflow=hidden;rotatable=0;points=[[0,0.5],[1,0.5]];portConstraint=eastwest;rounded=0;shadow=0;html=0;fontSize=14;" parent="CJstggTPEPOs3Jj6qC5T-18" vertex="1">
          <mxGeometry y="34" width="229" height="26" as="geometry" />
        </mxCell>
        <mxCell id="JMnRLmYQZvvEb5AHf6ID-20" style="edgeStyle=orthogonalEdgeStyle;rounded=0;orthogonalLoop=1;jettySize=auto;html=1;exitX=0.5;exitY=0;exitDx=0;exitDy=0;endArrow=block;endFill=0;endSize=14;fontSize=14;" edge="1" parent="WIyWlLk6GJQsqaUBKTNV-1" source="CJstggTPEPOs3Jj6qC5T-24" target="CJstggTPEPOs3Jj6qC5T-9">
          <mxGeometry relative="1" as="geometry" />
        </mxCell>
        <mxCell id="CJstggTPEPOs3Jj6qC5T-24" value="SpecialCommandModel" style="swimlane;fontStyle=2;align=center;verticalAlign=top;childLayout=stackLayout;horizontal=1;startSize=26;horizontalStack=0;resizeParent=1;resizeLast=0;collapsible=1;marginBottom=0;rounded=0;shadow=0;strokeWidth=1;fontSize=14;" parent="WIyWlLk6GJQsqaUBKTNV-1" vertex="1">
          <mxGeometry x="1351" y="352" width="219" height="60" as="geometry">
            <mxRectangle x="230" y="140" width="160" height="26" as="alternateBounds" />
          </mxGeometry>
        </mxCell>
        <mxCell id="CJstggTPEPOs3Jj6qC5T-25" value="+ FormingPoints: FormingPoint[]" style="text;align=left;verticalAlign=top;spacingLeft=4;spacingRight=4;overflow=hidden;rotatable=0;points=[[0,0.5],[1,0.5]];portConstraint=eastwest;fontSize=14;" parent="CJstggTPEPOs3Jj6qC5T-24" vertex="1">
          <mxGeometry y="26" width="219" height="26" as="geometry" />
        </mxCell>
        <mxCell id="CJstggTPEPOs3Jj6qC5T-28" value="" style="line;html=1;strokeWidth=1;align=left;verticalAlign=middle;spacingTop=-1;spacingLeft=3;spacingRight=3;rotatable=0;labelPosition=right;points=[];portConstraint=eastwest;fontSize=14;" parent="CJstggTPEPOs3Jj6qC5T-24" vertex="1">
          <mxGeometry y="52" width="219" height="8" as="geometry" />
        </mxCell>
        <mxCell id="CJstggTPEPOs3Jj6qC5T-33" style="edgeStyle=orthogonalEdgeStyle;rounded=0;orthogonalLoop=1;jettySize=auto;html=1;exitX=0.5;exitY=0;exitDx=0;exitDy=0;entryX=0.5;entryY=1;entryDx=0;entryDy=0;endArrow=block;endFill=0;endSize=14;fontSize=14;" parent="WIyWlLk6GJQsqaUBKTNV-1" source="CJstggTPEPOs3Jj6qC5T-34" target="CJstggTPEPOs3Jj6qC5T-24" edge="1">
          <mxGeometry relative="1" as="geometry">
            <mxPoint x="1590.25" y="492" as="sourcePoint" />
          </mxGeometry>
        </mxCell>
        <mxCell id="CJstggTPEPOs3Jj6qC5T-34" value="OnAnchorPointsCommandModel" style="swimlane;fontStyle=2;align=center;verticalAlign=top;childLayout=stackLayout;horizontal=1;startSize=26;horizontalStack=0;resizeParent=1;resizeLast=0;collapsible=1;marginBottom=0;rounded=0;shadow=0;strokeWidth=1;fontSize=14;" parent="WIyWlLk6GJQsqaUBKTNV-1" vertex="1">
          <mxGeometry x="1580" y="492" width="250" height="68" as="geometry">
            <mxRectangle x="230" y="140" width="160" height="26" as="alternateBounds" />
          </mxGeometry>
        </mxCell>
        <mxCell id="CJstggTPEPOs3Jj6qC5T-35" value="" style="line;html=1;strokeWidth=1;align=left;verticalAlign=middle;spacingTop=-1;spacingLeft=3;spacingRight=3;rotatable=0;labelPosition=right;points=[];portConstraint=eastwest;fontSize=14;" parent="CJstggTPEPOs3Jj6qC5T-34" vertex="1">
          <mxGeometry y="26" width="250" height="8" as="geometry" />
        </mxCell>
        <mxCell id="CJstggTPEPOs3Jj6qC5T-36" value="+ OnAnchorPointsCommandModel(...)" style="text;align=left;verticalAlign=top;spacingLeft=4;spacingRight=4;overflow=hidden;rotatable=0;points=[[0,0.5],[1,0.5]];portConstraint=eastwest;rounded=0;shadow=0;html=0;fontSize=14;" parent="CJstggTPEPOs3Jj6qC5T-34" vertex="1">
          <mxGeometry y="34" width="250" height="26" as="geometry" />
        </mxCell>
        <mxCell id="CJstggTPEPOs3Jj6qC5T-40" style="edgeStyle=orthogonalEdgeStyle;rounded=0;orthogonalLoop=1;jettySize=auto;html=1;exitX=0.5;exitY=0;exitDx=0;exitDy=0;entryX=0.5;entryY=1;entryDx=0;entryDy=0;endArrow=block;endFill=0;endSize=14;fontSize=14;" parent="WIyWlLk6GJQsqaUBKTNV-1" source="CJstggTPEPOs3Jj6qC5T-37" target="CJstggTPEPOs3Jj6qC5T-24" edge="1">
          <mxGeometry relative="1" as="geometry" />
        </mxCell>
        <mxCell id="CJstggTPEPOs3Jj6qC5T-37" value="CircleCommandModel" style="swimlane;fontStyle=2;align=center;verticalAlign=top;childLayout=stackLayout;horizontal=1;startSize=26;horizontalStack=0;resizeParent=1;resizeLast=0;collapsible=1;marginBottom=0;rounded=0;shadow=0;strokeWidth=1;fontSize=14;" parent="WIyWlLk6GJQsqaUBKTNV-1" vertex="1">
          <mxGeometry x="1350.5" y="492" width="220" height="68" as="geometry">
            <mxRectangle x="230" y="140" width="160" height="26" as="alternateBounds" />
          </mxGeometry>
        </mxCell>
        <mxCell id="CJstggTPEPOs3Jj6qC5T-38" value="" style="line;html=1;strokeWidth=1;align=left;verticalAlign=middle;spacingTop=-1;spacingLeft=3;spacingRight=3;rotatable=0;labelPosition=right;points=[];portConstraint=eastwest;fontSize=14;" parent="CJstggTPEPOs3Jj6qC5T-37" vertex="1">
          <mxGeometry y="26" width="220" height="8" as="geometry" />
        </mxCell>
        <mxCell id="CJstggTPEPOs3Jj6qC5T-39" value="+ CircleCommandModel(...)" style="text;align=left;verticalAlign=top;spacingLeft=4;spacingRight=4;overflow=hidden;rotatable=0;points=[[0,0.5],[1,0.5]];portConstraint=eastwest;rounded=0;shadow=0;html=0;fontSize=14;" parent="CJstggTPEPOs3Jj6qC5T-37" vertex="1">
          <mxGeometry y="34" width="220" height="26" as="geometry" />
        </mxCell>
        <mxCell id="CJstggTPEPOs3Jj6qC5T-44" style="edgeStyle=orthogonalEdgeStyle;rounded=0;orthogonalLoop=1;jettySize=auto;html=1;exitX=0.5;exitY=0;exitDx=0;exitDy=0;endArrow=block;endFill=0;endSize=14;fontSize=14;" parent="WIyWlLk6GJQsqaUBKTNV-1" source="CJstggTPEPOs3Jj6qC5T-41" target="CJstggTPEPOs3Jj6qC5T-24" edge="1">
          <mxGeometry relative="1" as="geometry" />
        </mxCell>
        <mxCell id="CJstggTPEPOs3Jj6qC5T-41" value="SplineCommandModel" style="swimlane;fontStyle=2;align=center;verticalAlign=top;childLayout=stackLayout;horizontal=1;startSize=26;horizontalStack=0;resizeParent=1;resizeLast=0;collapsible=1;marginBottom=0;rounded=0;shadow=0;strokeWidth=1;fontSize=14;" parent="WIyWlLk6GJQsqaUBKTNV-1" vertex="1">
          <mxGeometry x="1110" y="492" width="220" height="68" as="geometry">
            <mxRectangle x="230" y="140" width="160" height="26" as="alternateBounds" />
          </mxGeometry>
        </mxCell>
        <mxCell id="CJstggTPEPOs3Jj6qC5T-42" value="" style="line;html=1;strokeWidth=1;align=left;verticalAlign=middle;spacingTop=-1;spacingLeft=3;spacingRight=3;rotatable=0;labelPosition=right;points=[];portConstraint=eastwest;fontSize=14;" parent="CJstggTPEPOs3Jj6qC5T-41" vertex="1">
          <mxGeometry y="26" width="220" height="8" as="geometry" />
        </mxCell>
        <mxCell id="CJstggTPEPOs3Jj6qC5T-43" value="+ SplineCommandModel(...)" style="text;align=left;verticalAlign=top;spacingLeft=4;spacingRight=4;overflow=hidden;rotatable=0;points=[[0,0.5],[1,0.5]];portConstraint=eastwest;rounded=0;shadow=0;html=0;fontSize=14;" parent="CJstggTPEPOs3Jj6qC5T-41" vertex="1">
          <mxGeometry y="34" width="220" height="26" as="geometry" />
        </mxCell>
        <mxCell id="JMnRLmYQZvvEb5AHf6ID-19" style="edgeStyle=orthogonalEdgeStyle;rounded=0;orthogonalLoop=1;jettySize=auto;html=1;exitX=0.5;exitY=0;exitDx=0;exitDy=0;endArrow=block;endFill=0;endSize=14;fontSize=14;" edge="1" parent="WIyWlLk6GJQsqaUBKTNV-1" source="CJstggTPEPOs3Jj6qC5T-45" target="CJstggTPEPOs3Jj6qC5T-9">
          <mxGeometry relative="1" as="geometry">
            <Array as="points">
              <mxPoint x="1701" y="320" />
              <mxPoint x="1461" y="320" />
            </Array>
          </mxGeometry>
        </mxCell>
        <mxCell id="CJstggTPEPOs3Jj6qC5T-45" value="LineCommandModel" style="swimlane;fontStyle=2;align=center;verticalAlign=top;childLayout=stackLayout;horizontal=1;startSize=26;horizontalStack=0;resizeParent=1;resizeLast=0;collapsible=1;marginBottom=0;rounded=0;shadow=0;strokeWidth=1;fontSize=14;" parent="WIyWlLk6GJQsqaUBKTNV-1" vertex="1">
          <mxGeometry x="1601" y="352" width="199" height="68" as="geometry">
            <mxRectangle x="230" y="140" width="160" height="26" as="alternateBounds" />
          </mxGeometry>
        </mxCell>
        <mxCell id="CJstggTPEPOs3Jj6qC5T-46" value="" style="line;html=1;strokeWidth=1;align=left;verticalAlign=middle;spacingTop=-1;spacingLeft=3;spacingRight=3;rotatable=0;labelPosition=right;points=[];portConstraint=eastwest;fontSize=14;" parent="CJstggTPEPOs3Jj6qC5T-45" vertex="1">
          <mxGeometry y="26" width="199" height="8" as="geometry" />
        </mxCell>
        <mxCell id="CJstggTPEPOs3Jj6qC5T-47" value="+ LineCommandModel(...)" style="text;align=left;verticalAlign=top;spacingLeft=4;spacingRight=4;overflow=hidden;rotatable=0;points=[[0,0.5],[1,0.5]];portConstraint=eastwest;rounded=0;shadow=0;html=0;fontSize=14;" parent="CJstggTPEPOs3Jj6qC5T-45" vertex="1">
          <mxGeometry y="34" width="199" height="26" as="geometry" />
        </mxCell>
        <mxCell id="JMnRLmYQZvvEb5AHf6ID-23" style="edgeStyle=orthogonalEdgeStyle;rounded=0;orthogonalLoop=1;jettySize=auto;html=1;exitX=0.5;exitY=0;exitDx=0;exitDy=0;endArrow=block;endFill=0;endSize=14;fontSize=14;" edge="1" parent="WIyWlLk6GJQsqaUBKTNV-1" source="JMnRLmYQZvvEb5AHf6ID-5" target="CJstggTPEPOs3Jj6qC5T-9">
          <mxGeometry relative="1" as="geometry">
            <Array as="points">
              <mxPoint x="1200" y="202" />
              <mxPoint x="1461" y="202" />
            </Array>
          </mxGeometry>
        </mxCell>
        <mxCell id="JMnRLmYQZvvEb5AHf6ID-5" value="DelayCommandModel" style="swimlane;fontStyle=2;align=center;verticalAlign=top;childLayout=stackLayout;horizontal=1;startSize=26;horizontalStack=0;resizeParent=1;resizeLast=0;collapsible=1;marginBottom=0;rounded=0;shadow=0;strokeWidth=1;fontSize=14;" vertex="1" parent="WIyWlLk6GJQsqaUBKTNV-1">
          <mxGeometry x="1120" y="210" width="190" height="86" as="geometry">
            <mxRectangle x="230" y="140" width="160" height="26" as="alternateBounds" />
          </mxGeometry>
        </mxCell>
        <mxCell id="JMnRLmYQZvvEb5AHf6ID-8" value="+ timeDelay: float" style="text;align=left;verticalAlign=top;spacingLeft=4;spacingRight=4;overflow=hidden;rotatable=0;points=[[0,0.5],[1,0.5]];portConstraint=eastwest;rounded=0;shadow=0;html=0;fontSize=14;" vertex="1" parent="JMnRLmYQZvvEb5AHf6ID-5">
          <mxGeometry y="26" width="190" height="26" as="geometry" />
        </mxCell>
        <mxCell id="JMnRLmYQZvvEb5AHf6ID-6" value="" style="line;html=1;strokeWidth=1;align=left;verticalAlign=middle;spacingTop=-1;spacingLeft=3;spacingRight=3;rotatable=0;labelPosition=right;points=[];portConstraint=eastwest;fontSize=14;" vertex="1" parent="JMnRLmYQZvvEb5AHf6ID-5">
          <mxGeometry y="52" width="190" height="8" as="geometry" />
        </mxCell>
        <mxCell id="JMnRLmYQZvvEb5AHf6ID-7" value="+ DelayCommandModel(...)" style="text;align=left;verticalAlign=top;spacingLeft=4;spacingRight=4;overflow=hidden;rotatable=0;points=[[0,0.5],[1,0.5]];portConstraint=eastwest;rounded=0;shadow=0;html=0;fontSize=14;" vertex="1" parent="JMnRLmYQZvvEb5AHf6ID-5">
          <mxGeometry y="60" width="190" height="26" as="geometry" />
        </mxCell>
        <mxCell id="JMnRLmYQZvvEb5AHf6ID-18" style="edgeStyle=orthogonalEdgeStyle;rounded=0;orthogonalLoop=1;jettySize=auto;html=1;exitX=0.5;exitY=0;exitDx=0;exitDy=0;endArrow=block;endFill=0;endSize=14;fontSize=14;" edge="1" parent="WIyWlLk6GJQsqaUBKTNV-1" source="JMnRLmYQZvvEb5AHf6ID-9" target="CJstggTPEPOs3Jj6qC5T-9">
          <mxGeometry relative="1" as="geometry">
            <Array as="points">
              <mxPoint x="1205" y="320" />
              <mxPoint x="1461" y="320" />
            </Array>
          </mxGeometry>
        </mxCell>
        <mxCell id="JMnRLmYQZvvEb5AHf6ID-9" value="ToolSwitchCommandModel" style="swimlane;fontStyle=2;align=center;verticalAlign=top;childLayout=stackLayout;horizontal=1;startSize=26;horizontalStack=0;resizeParent=1;resizeLast=0;collapsible=1;marginBottom=0;rounded=0;shadow=0;strokeWidth=1;fontSize=14;" vertex="1" parent="WIyWlLk6GJQsqaUBKTNV-1">
          <mxGeometry x="1110" y="352" width="220" height="86" as="geometry">
            <mxRectangle x="230" y="140" width="160" height="26" as="alternateBounds" />
          </mxGeometry>
        </mxCell>
        <mxCell id="JMnRLmYQZvvEb5AHf6ID-10" value="+ isOn: bool" style="text;align=left;verticalAlign=top;spacingLeft=4;spacingRight=4;overflow=hidden;rotatable=0;points=[[0,0.5],[1,0.5]];portConstraint=eastwest;rounded=0;shadow=0;html=0;fontSize=14;" vertex="1" parent="JMnRLmYQZvvEb5AHf6ID-9">
          <mxGeometry y="26" width="220" height="26" as="geometry" />
        </mxCell>
        <mxCell id="JMnRLmYQZvvEb5AHf6ID-11" value="" style="line;html=1;strokeWidth=1;align=left;verticalAlign=middle;spacingTop=-1;spacingLeft=3;spacingRight=3;rotatable=0;labelPosition=right;points=[];portConstraint=eastwest;fontSize=14;" vertex="1" parent="JMnRLmYQZvvEb5AHf6ID-9">
          <mxGeometry y="52" width="220" height="8" as="geometry" />
        </mxCell>
        <mxCell id="JMnRLmYQZvvEb5AHf6ID-12" value="+ ToolSwitchCommandModel(...)" style="text;align=left;verticalAlign=top;spacingLeft=4;spacingRight=4;overflow=hidden;rotatable=0;points=[[0,0.5],[1,0.5]];portConstraint=eastwest;rounded=0;shadow=0;html=0;fontSize=14;" vertex="1" parent="JMnRLmYQZvvEb5AHf6ID-9">
          <mxGeometry y="60" width="220" height="26" as="geometry" />
        </mxCell>
      </root>
    </mxGraphModel>
  </diagram>
</mxfile>
